<?xml version="1.0" standalone="no"?>

<!DOCTYPE svg PUBLIC "-//W3C//DTD SVG 20010904//EN"

 "http://www.w3.org/TR/2001/REC-SVG-20010904/DTD/svg10.dtd">

<svg version="1.0" xmlns="http://www.w3.org/2000/svg"

 width="512.000000pt" height="512.000000pt" viewBox="0 0 512.000000 512.000000"

 preserveAspectRatio="xMidYMid meet">

<path fill="#000000" stroke="none" d="
M113 413

C102 410 90 401 86 392

C81 383 80 375 80 357

C80 337 81 327 87 306

C102 249 134 206 166 200

C183 197 195 200 225 214

C244 223 250 224 269 224

C289 224 294 223 318 212

C350 197 366 195 386 205

C405 215 425 238 438 268

C452 299 460 337 459 364

C457 389 450 402 432 411

C427 413 426 413 414 413

C402 413 401 413 393 410

C377 403 366 395 337 364

C329 356 322 351 311 349

C303 347 236 347 228 349

C215 352 211 355 192 373

C172 393 164 399 152 406

C138 413 124 415 113 413

Z

M367 331

C382 324 379 301 362 299

C355 299 350 301 347 305

C341 313 342 322 349 328

C355 333 360 334 367 331

Z

M181 331

C187 328 188 325 189 311

L190 298

L203 297

C218 296 221 295 223 288

C224 284 224 280 220 276

C217 272 213 271 200 271

L189 271

L189 258

C189 247 189 245 187 243

C181 235 169 236 165 244

C163 248 163 251 163 260

L163 271

L152 271

C143 271 140 271 136 273

C128 277 127 289 135 295

C137 297 139 297 150 297

L163 297

L163 310

C164 324 165 327 171 330

C175 332 177 332 181 331

Z

M333 296

C339 293 341 289 342 282

C342 275 340 271 335 267

C328 263 320 263 314 269

C307 275 306 285 312 292

C318 298 326 300 333 296

Z

M401 297

C408 294 413 284 411 277

C407 263 389 259 380 272

C378 276 377 284 379 289

C383 297 393 300 401 297

Z

M367 262

C371 260 374 257 376 252

C378 246 377 240 372 235

C365 228 356 228 349 234

C340 241 342 255 351 261

C355 263 362 264 367 262

Z

M258 205

L256 205

L256 202

C256 198 259 185 262 179

C269 161 285 145 304 138

C315 134 325 133 348 133

C371 133 377 132 385 128

C397 122 407 111 411 100

C412 97 414 90 414 85

C416 76 416 75 419 72

C424 66 432 66 438 73

C441 76 441 77 441 83

C441 117 417 147 383 157

C376 159 372 159 348 160

C322 161 319 161 314 163

C297 169 286 182 284 198

L283 205

L280 205

C276 206 260 206 258 205

Z

"/>

<path fill="#050505" stroke="none" d="
M113 413

C102 410 90 401 86 392

C81 383 80 375 80 357

C80 337 81 327 87 306

C102 249 134 206 166 200

C183 197 195 200 225 214

C244 223 250 224 269 224

C289 224 294 223 318 212

C350 197 366 195 386 205

C405 215 425 238 438 268

C452 299 460 337 459 364

C457 389 450 402 432 411

C427 413 426 413 414 413

C402 413 401 413 393 410

C377 403 366 395 337 364

C329 356 322 351 311 349

C303 347 236 347 228 349

C215 352 211 355 192 373

C172 393 164 399 152 406

C138 413 124 415 113 413

Z

M367 331

C382 324 379 301 362 299

C355 299 350 301 347 305

C341 313 342 322 349 328

C355 333 360 334 367 331

Z

M181 331

C187 328 188 325 189 311

L190 298

L203 297

C218 296 221 295 223 288

C224 284 224 280 220 276

C217 272 213 271 200 271

L189 271

L189 258

C189 247 189 245 187 243

C181 235 169 236 165 244

C163 248 163 251 163 260

L163 271

L152 271

C143 271 140 271 136 273

C128 277 127 289 135 295

C137 297 139 297 150 297

L163 297

L163 310

C164 324 165 327 171 330

C175 332 177 332 181 331

Z

M333 296

C339 293 341 289 342 282

C342 275 340 271 335 267

C328 263 320 263 314 269

C307 275 306 285 312 292

C318 298 326 300 333 296

Z

M401 297

C408 294 413 284 411 277

C407 263 389 259 380 272

C378 276 377 284 379 289

C383 297 393 300 401 297

Z

M367 262

C371 260 374 257 376 252

C378 246 377 240 372 235

C365 228 356 228 349 234

C340 241 342 255 351 261

C355 263 362 264 367 262

Z

M258 205

L256 205

L256 202

C256 198 259 185 262 179

C269 161 285 145 304 138

C315 134 325 133 348 133

C371 133 377 132 385 128

C397 122 407 111 411 100

C412 97 414 90 414 85

C416 76 416 75 419 72

C424 66 432 66 438 73

C441 76 441 77 441 83

C441 117 417 147 383 157

C376 159 372 159 348 160

C322 161 319 161 314 163

C297 169 286 182 284 198

L283 205

L280 205

C276 206 260 206 258 205

Z

"/>

<path fill="#2d2d2d" stroke="none" d="
M113 413

C102 410 90 401 86 392

C81 383 80 375 80 357

C80 337 81 327 87 306

C102 249 134 206 166 200

C183 197 195 200 225 214

C244 223 250 224 269 224

C289 224 294 223 318 212

C350 197 366 195 386 205

C405 215 425 238 438 268

C452 299 460 337 459 364

C457 389 450 402 432 411

C427 413 426 413 414 413

C402 413 401 413 393 410

C377 403 366 395 337 364

C329 356 322 351 311 349

C303 347 236 347 228 349

C215 352 211 355 192 373

C172 393 164 399 152 406

C138 413 124 415 113 413

Z

M367 331

C382 324 379 301 362 299

C355 299 350 301 347 305

C341 313 342 322 349 328

C355 333 360 334 367 331

Z

M181 331

C187 328 188 325 189 311

L190 298

L203 297

C218 296 221 295 223 288

C224 284 224 280 220 276

C217 272 213 271 200 271

L189 271

L189 258

C189 247 189 245 187 243

C181 235 169 236 165 244

C163 248 163 251 163 260

L163 271

L152 271

C143 271 140 271 136 273

C128 277 127 289 135 295

C137 297 139 297 150 297

L163 297

L163 310

C164 324 165 327 171 330

C175 332 177 332 181 331

Z

M333 296

C339 293 341 289 342 282

C342 275 340 271 335 267

C328 263 320 263 314 269

C307 275 306 285 312 292

C318 298 326 300 333 296

Z

M401 297

C408 294 413 284 411 277

C407 263 389 259 380 272

C378 276 377 284 379 289

C383 297 393 300 401 297

Z

M367 262

C371 260 374 257 376 252

C378 246 377 240 372 235

C365 228 356 228 349 234

C340 241 342 255 351 261

C355 263 362 264 367 262

Z

M258 205

L256 205

L256 202

C256 198 259 185 262 179

C269 161 285 145 304 138

C315 134 325 133 348 133

C371 133 377 132 385 128

C397 122 407 111 411 100

C412 97 414 90 414 85

C416 76 416 75 419 72

C424 66 432 66 438 73

C441 76 441 77 441 83

C441 117 417 147 383 157

C376 159 372 159 348 160

C322 161 319 161 314 163

C297 169 286 182 284 198

L283 205

L280 205

C276 206 260 206 258 205

Z

"/>

<path fill="#313131" stroke="none" d="
M112 413

C109 412 106 411 106 410

L106 409

L105 410

L104 410

L104 409

L104 408

L103 408

L102 409

L97 405

C92 401 86 395 86 392

C86 391 85 390 84 389

C83 388 83 387 83 386

L84 385

L83 385

L82 385

L82 383

L83 381

L82 381

L81 380

L81 375

C80 372 80 369 80 368

C79 367 79 362 79 356

C80 350 80 343 80 341

L80 336

L81 336

L82 336

L81 333

L81 329

L82 329

L83 329

L82 326

L82 323

L83 323

L84 323

L83 321

L83 318

L84 318

L85 318

L85 317

C84 317 85 313 86 309

L87 302

L88 302

L89 302

L89 301

C88 301 89 296 91 291

L94 281

L95 281

L96 281

L95 280

C95 279 96 278 96 277

L98 275

L97 275

L97 274

L102 263

C112 242 125 224 139 214

L146 208

L147 209

L148 209

L148 208

C148 206 161 201 165 201

C167 200 169 200 170 200

C170 199 174 199 178 199

L185 199

L185 200

L185 201

L189 201

L193 201

L194 202

L194 203

L195 202

C196 202 200 203 203 204

C211 207 231 217 232 218

C232 218 233 219 234 219

C235 219 248 222 252 224

C253 224 255 224 257 224

C259 224 261 224 261 225

C262 226 265 226 269 225

C272 225 278 225 280 225

C282 224 285 224 286 224

C287 223 290 222 294 222

C298 221 304 218 309 216

C314 214 318 212 319 212

L321 212

L321 211

L321 210

L322 210

L322 211

L324 210

C326 208 341 202 343 202

L344 203

L344 202

L345 201

L349 201

L353 201

L353 200

L353 199

L360 199

C364 199 368 199 368 200

C369 200 371 200 373 201

C383 201 402 214 414 228

C423 239 437 263 438 269

C438 270 439 271 439 271

C440 272 446 287 445 288

L445 289

L446 289

L447 289

L448 293

C448 295 449 297 448 297

L448 298

L449 298

L450 298

L450 300

L449 302

L450 302

L451 302

L452 309

C453 313 454 317 453 317

L453 318

L454 318

L455 318

L455 321

L454 323

L455 323

L456 323

L456 326

L455 329

L456 329

L457 329

L457 332

C457 333 457 335 457 336

C458 337 458 345 458 354

C458 372 458 375 457 376

C457 377 457 379 456 381

L456 384

L455 385

L454 385

L455 386

C456 388 449 399 443 404

C437 408 428 413 425 413

L424 412

L424 413

L424 414

L414 413

L405 413

L405 413

L405 413

L401 413

C399 412 397 412 397 411

L397 410

L396 411

C394 412 379 403 370 397

C362 390 350 378 339 366

C331 357 325 353 309 348

C304 347 247 346 240 347

C238 347 233 348 229 349

C216 351 211 355 192 373

C182 383 171 393 168 396

C159 402 143 410 142 409

L141 409

L141 410

L141 411

L140 411

L138 410

L138 411

L137 412

L134 412

C132 413 130 413 129 413

C128 414 117 414 112 413

Z

M365 332

C373 328 377 322 377 315

L378 312

L377 312

L376 312

L375 309

C374 305 369 300 366 300

L365 300

L365 299

L365 298

L359 299

C352 300 350 301 346 306

C343 310 342 316 344 321

C345 325 352 332 355 332

C356 332 357 332 358 333

C358 334 359 334 365 332

Z

M180 331

C187 328 188 326 189 311

L190 298

L203 297

C214 297 216 296 219 294

C223 292 224 286 223 281

C221 273 214 271 198 271

L189 271

L189 258

C189 247 189 245 187 243

C184 239 182 238 177 237

L173 236

L173 237

C173 237 172 238 170 239

C165 241 163 247 162 259

C162 265 162 270 162 270

C162 270 157 270 151 270

C139 271 133 273 131 278

C130 280 129 281 129 281

L128 281

L129 285

C130 290 131 292 135 295

C137 297 139 297 150 297

L163 297

L162 303

C162 312 163 323 166 326

C167 328 171 331 176 333

C176 333 178 332 180 331

Z

M333 296

C339 293 342 289 342 281

C342 275 341 274 339 271

C337 269 334 267 332 266

L329 265

L329 264

L329 263

L327 264

C326 264 324 264 322 265

C318 265 310 271 310 273

C310 274 309 276 308 278

C307 280 307 282 308 283

C308 284 309 286 309 286

C309 289 315 295 318 297

C323 299 329 298 333 296

Z

M401 297

C408 294 413 284 411 277

C410 273 406 268 403 266

C402 265 399 265 396 264

C392 263 391 264 387 266

C381 270 378 274 378 281

C378 284 379 287 379 289

C383 297 393 300 401 297

Z

M370 260

C371 259 373 257 375 254

C376 252 377 250 377 250

C377 250 378 248 378 246

L378 243

L377 243

L376 243

L376 241

C376 240 374 237 372 235

C365 228 356 228 348 234

C347 236 345 238 344 240

L344 242

L343 242

L342 242

L343 247

C344 254 347 258 351 261

C356 264 366 263 370 260

Z

M258 205

L258 204

L257 205

L256 205

L256 202

L256 198

L257 198

L258 198

L257 195

L257 192

L258 192

L259 192

L258 190

L258 188

L259 188

L260 188

L259 187

C259 185 263 174 268 166

C273 160 281 151 288 146

C294 142 304 138 305 138

L306 139

L306 138

L306 137

L308 137

L309 138

L309 137

L309 136

L311 136

L313 137

L313 136

L313 135

L315 135

C316 135 317 135 318 135

C319 134 332 133 347 133

C372 132 375 132 380 130

C392 126 402 117 408 107

C409 105 411 102 411 102

C411 102 412 101 412 101

C412 100 412 98 412 96

L413 92

L414 92

L415 92

L415 88

C415 76 415 75 418 72

L421 69

L422 70

L423 70

L423 69

L423 68

L424 68

C425 69 426 68 427 68

L428 67

L429 68

C430 68 431 68 432 69

C433 69 436 70 437 72

C440 75 441 76 441 84

L441 92

L440 92

L439 92

L440 95

L440 98

L439 98

L439 98

L438 101

L438 104

L437 105

L436 105

L437 107

L437 108

L436 108

L435 108

L435 109

C437 112 426 129 417 137

C411 143 399 151 398 150

L397 150

L397 151

L397 152

L396 152

L396 151

L394 153

C392 154 379 158 378 158

L377 157

L377 158

L377 159

L374 159

L371 158

L370 159

C370 160 360 160 347 160

C335 160 324 160 323 160

C304 165 293 173 287 186

C286 188 285 190 285 190

L285 190

L284 194

L284 198

L283 198

L282 198

L283 202

L283 205

L282 204

L280 204

L280 205

C279 206 259 206 258 205

Z

"/>

<path fill="#373737" stroke="none" d="
M117 413

L117 412

L114 413

L111 413

L112 412

L112 411

L110 411

C109 412 108 411 107 411

L105 409

L105 410

L104 410

L104 409

L104 408

L103 409

L102 409

L102 408

L102 407

L101 407

L100 408

L99 406

L98 405

L98 405

L98 406

L92 400

L86 394

L87 393

L87 392

L86 392

L85 392

L86 391

L86 390

L85 390

L84 390

L84 388

L85 387

L84 388

L83 388

L84 386

L84 384

L83 385

L82 385

L82 383

L83 381

L82 381

L81 381

L81 378

L82 375

L81 376

L80 376

L80 371

L81 366

L80 367

L79 369

L79 358

L79 347

L80 348

L81 350

L80 343

L80 336

L81 336

L82 337

L81 333

L81 329

L82 329

L83 330

L82 326

L82 323

L83 323

L84 324

L83 321

L83 318

L84 318

L85 319

L84 317

L84 314

L85 314

L86 314

L85 312

L85 310

L86 310

L87 310

L87 308

L86 306

L87 306

L88 306

L87 304

L87 302

L88 302

L89 302

L88 301

L88 299

L89 299

L90 299

L89 297

L89 295

L90 295

L91 296

L91 294

L90 292

L91 292

L92 292

L91 291

L91 289

L92 289

L93 289

L93 288

C93 287 93 286 93 285

L93 283

L94 283

L95 284

L94 283

L94 281

L95 281

L96 281

L95 280

C95 279 96 278 96 277

C97 276 97 275 97 274

L97 273

L98 273

L99 274

L98 273

L98 271

L99 271

L100 271

L100 270

L99 269

L100 269

L101 269

L101 268

L100 267

L101 267

L102 267

L102 266

C101 266 101 264 102 264

L102 262

L103 263

L104 263

L104 262

C103 262 103 260 104 260

L104 258

L105 259

L106 259

L105 258

C105 257 106 255 107 254

C108 253 109 252 109 251

C109 251 109 250 110 249

L110 247

L111 248

L112 248

L112 247

L111 246

L113 244

L115 242

L114 242

L114 242

L115 240

L117 239

L117 239

L116 239

L119 235

C124 228 131 220 136 216

L141 212

L141 213

L140 215

L143 211

L146 208

L147 208

L148 209

L148 208

C148 207 154 204 155 205

L156 205

L155 204

L155 203

L156 203

L158 204

L158 203

L158 202

L160 202

L161 203

L160 202

L160 201

L162 201

L165 202

L164 201

L164 200

L168 201

L171 201

L171 200

L170 199

L178 199

L185 199

L185 200

L184 201

L187 200

L190 200

L190 201

L190 202

L192 201

L194 201

L194 202

L194 203

L196 202

L198 202

L198 203

L197 204

L199 203

L201 203

L201 204

L200 205

L201 204

L203 204

L203 205

L203 206

L205 205

L206 205

L206 206

L206 207

L208 206

L209 206

L209 207

L208 208

L209 207

C210 207 211 208 212 208

L214 210

L214 209

L215 209

L215 210

L215 211

L216 211

L217 210

L217 211

L217 212

L218 212

C218 211 220 211 220 212

L222 212

L221 213

L221 214

L223 213

L224 213

L224 214

L223 215

L224 215

C225 214 230 216 230 217

L230 218

L231 218

L232 217

L232 218

L232 219

L234 218

L235 218

L235 219

L234 220

L235 219

L237 219

L237 220

L237 221

L239 220

L240 220

L240 221

L240 222

L242 221

L243 221

L243 222

L243 223

L245 222

L247 222

L247 223

L247 224

L250 223

L252 223

L252 224

L252 225

L257 224

L261 224

L261 225

L260 226

L270 226

L279 226

L278 225

L277 224

L281 224

L286 225

L286 224

L286 223

L289 223

L291 224

L291 223

L291 222

L293 222

L295 223

L295 222

L295 221

L297 221

L298 222

L298 221

L298 220

L300 220

L301 221

L301 220

L301 219

L303 219

L304 220

L303 219

L303 218

L304 218

C305 218 306 218 307 217

C308 217 309 216 310 216

L311 217

L310 216

L310 215

L311 215

L313 216

L313 215

L312 214

L315 213

C316 212 318 212 318 213

L319 213

L319 212

L319 211

L320 212

L321 212

L321 211

L321 210

L322 211

L323 211

L323 210

L323 209

L324 209

L324 210

L326 208

C327 208 328 207 329 207

L330 208

L329 207

L329 206

L330 206

L332 207

L332 206

L332 205

L334 205

L335 206

L334 205

L334 204

L336 204

L338 205

L337 204

L337 203

L339 203

L341 204

L340 203

L340 202

L342 202

L344 203

L344 202

L344 201

L346 202

L348 202

L348 201

L348 200

L351 200

L354 201

L353 200

L353 199

L361 199

L368 199

L367 200

L367 201

L370 201

L374 200

L374 201

L373 202

L376 201

L378 201

L378 202

L377 203

L378 202

L380 202

L380 203

L380 204

L382 203

L383 203

L383 204

L382 205

L383 205

C383 204 385 204 386 205

L389 206

L388 207

L388 208

L389 207

C390 207 392 208 394 210

L397 213

L397 213

L398 213

L403 217

C406 220 411 224 413 227

L418 232

L416 232

L415 231

L418 233

L421 236

L419 235

L418 235

L421 238

L424 241

L424 242

L423 243

L425 243

L426 244

L426 245

L425 246

L426 246

C427 246 432 255 431 256

L431 257

L432 257

L433 256

L435 261

C436 263 437 266 436 266

L436 267

L437 266

L438 266

L438 267

L437 269

L438 269

L439 269

L439 270

L438 271

L439 271

L440 271

L440 273

L439 274

L440 273

L441 273

L441 274

C441 275 441 276 442 277

C442 278 443 279 443 280

L442 281

L443 281

L444 281

L444 283

L443 284

L444 283

L445 283

L445 284

L444 286

L445 286

L446 286

L446 288

L445 289

L446 289

L447 289

L447 291

L446 292

L447 292

L448 292

L448 294

L447 295

L448 295

L449 295

L448 297

L448 299

L449 298

L450 298

L450 300

L449 302

L450 302

L451 302

L450 304

L450 306

L451 305

L452 305

L452 307

L451 310

L452 309

L453 309

L453 311

L452 314

L453 314

L454 314

L454 317

L453 319

L454 318

L455 318

L455 320

L454 323

L455 323

L456 323

L456 327

L455 330

L456 329

L457 329

L457 333

L456 337

L457 336

L458 336

L458 342

L457 349

L458 347

L459 346

L459 357

L459 368

L458 368

L457 368

L458 372

L458 376

L457 376

L456 376

L457 379

L457 381

L456 381

L455 381

L456 383

L456 385

L455 385

L454 385

L455 386

C455 387 454 388 454 389

L452 391

L453 391

L453 392

L452 392

L451 392

L452 393

L452 394

L451 394

L450 394

L450 395

L451 396

L448 399

L445 403

L446 401

L448 398

L444 403

C441 405 439 407 438 407

C437 407 436 408 435 409

C434 410 432 411 431 411

L430 410

L430 411

L430 412

L428 412

L427 411

L428 412

L428 413

L426 413

L423 412

L423 413

L424 414

L414 414

L405 414

L405 413

L405 412

L402 413

L400 413

L400 412

L401 411

L399 411

L397 412

L397 411

L397 410

L395 411

L394 411

L394 410

L395 409

L394 410

L392 410

L392 409

L392 408

L391 408

C390 409 382 405 382 404

L382 403

L381 403

C381 404 379 403 378 402

L375 400

L376 400

L377 399

L375 399

L374 400

L369 396

C366 394 360 388 355 384

L347 376

L348 375

L348 374

L347 374

L346 375

L343 371

L341 368

L342 368

L344 369

L340 366

C338 364 335 361 333 360

L331 357

L331 358

L332 360

L330 358

C329 356 328 355 327 355

C326 355 325 354 324 353

L323 352

L323 353

L322 353

L322 352

L322 351

L321 352

L319 352

L318 351

C317 350 316 350 315 350

L313 350

L313 349

L313 348

L311 349

L309 349

L309 348

L309 347

L304 348

L299 348

L300 347

L302 346

L269 346

L237 346

L238 347

L240 348

L235 348

L230 347

L230 348

L230 349

L227 349

L225 348

L226 349

L226 350

L224 350

L222 349

L222 350

L222 351

L220 351

L219 350

L220 351

L220 352

L219 352

L217 351

L217 352

L217 353

L216 353

L215 352

L215 353

L215 354

L214 354

L214 353

L211 356

L209 358

L208 357

L207 357

L207 357

L208 358

L192 373

C184 382 175 390 174 391

L171 394

L171 392

L172 391

L170 393

C167 397 159 402 158 401

L157 401

L157 402

L158 403

L156 404

C155 404 153 404 153 404

L152 404

L152 405

L152 406

L151 406

L150 405

L150 406

L150 407

L149 407

L148 406

L148 407

L148 408

L147 408

L146 407

L146 408

L146 409

L144 409

L143 408

L144 409

L144 410

L143 410

L141 409

L141 410

L141 411

L140 411

L138 410

L138 411

L138 412

L136 412

L134 411

L134 412

L134 413

L132 413

L129 412

L129 413

L129 414

L122 414

L116 414

L117 413

Z

M200 365

L203 361

L203 361

C203 361 201 363 199 365

L195 369

L195 369

C195 369 197 367 200 365

Z

M363 333

L363 332

L366 332

C369 331 377 323 376 321

L376 320

L377 320

L378 320

L378 316

L378 312

L377 312

L376 312

L376 309

C375 306 368 299 366 300

L365 300

L365 299

L365 299

L360 299

L355 299

L355 299

L355 300

L354 300

L352 299

L352 300

L352 301

L351 301

L350 300

L348 304

C346 306 344 308 344 308

L343 308

L344 310

L344 311

L343 311

L343 311

L343 315

C343 318 343 320 343 320

C344 321 346 326 346 327

C346 327 347 328 347 329

L348 330

L349 329

L350 329

L352 331

C353 332 354 332 355 332

L357 332

L357 333

L357 334

L360 334

L363 334

L363 333

Z

M179 332

L179 331

L181 331

L182 332

L182 331

L182 330

L183 330

L183 331

L186 328

L188 325

L188 326

L189 326

L188 325

L188 323

L189 323

L190 323

L189 311

C189 304 189 298 190 298

C190 297 197 297 204 297

L218 297

L218 296

L217 296

L220 294

L223 291

L222 291

L222 290

L223 290

L224 290

L223 288

L223 286

L224 286

L225 287

L225 285

L225 282

L224 282

L223 282

L222 279

C221 277 221 275 221 275

L221 274

L219 273

C217 273 216 273 216 272

L216 271

L214 272

L212 272

L212 271

L213 270

L201 270

L189 271

L189 258

L190 245

L189 245

L188 245

L188 244

L189 243

L187 243

L186 242

L187 241

L187 240

L186 240

C185 240 180 238 180 237

L180 236

L177 236

L173 237

L173 237

L173 238

L172 238

L170 237

L170 238

C170 239 169 240 167 240

L165 242

L165 242

C165 243 165 243 165 244

L165 245

L164 245

L163 244

L164 246

L164 248

L163 248

L162 248

L162 259

L162 270

L151 270

L140 270

L140 271

L140 272

L138 272

L136 271

L137 272

L137 273

L136 273

C135 273 135 273 134 273

C134 273 133 274 132 276

C132 277 131 278 130 278

L129 278

L130 280

L130 281

L129 281

L129 281

L129 285

L129 288

L129 288

L130 288

L131 290

C131 291 131 293 131 294

L132 295

L133 294

L134 294

L135 295

L135 297

L136 296

L137 296

L137 297

L137 298

L150 297

L163 297

L162 309

L162 321

L163 321

L164 321

L164 322

L163 324

L164 324

C165 324 165 325 165 326

C166 328 167 329 168 330

C168 330 170 330 171 330

L174 331

L174 332

L174 333

L177 333

L179 333

L179 332

Z

M195 299

L199 298

L194 298

L190 298

L190 300

L190 302

L191 300

C191 300 193 299 195 299

Z

M159 298

C157 298 155 298 153 298

L151 299

L156 299

L162 299

L159 298

Z

M330 298

L330 297

L332 297

L333 298

L332 297

L332 296

L333 296

C335 296 342 289 341 287

L341 286

L342 286

L343 286

L343 281

L343 276

L342 276

L341 276

L341 275

C342 273 335 266 332 265

L329 265

L329 264

L329 264

L325 263

L321 263

L321 264

L321 265

L320 265

L318 264

L318 265

L318 266

L317 266

L317 265

L315 267

L314 269

L313 268

L312 268

L312 269

L313 270

L311 271

L309 272

L310 274

L310 275

L309 275

L308 274

L309 276

L309 278

L308 278

L307 277

L307 281

L307 285

L308 284

L309 284

L309 286

L308 288

L309 288

L310 288

L310 289

L309 289

L312 292

L315 294

L313 293

L311 292

L312 293

L313 295

L314 295

L315 294

L317 296

C318 297 319 297 320 297

L321 297

L321 298

L321 299

L326 299

L330 299

L330 298

Z

M399 298

L399 297

L400 297

L402 298

L406 294

C411 287 412 287 411 285

L411 283

L412 283

L413 284

L413 281

L413 278

L412 279

L411 279

L411 277

C411 276 411 275 411 275

C410 274 408 272 407 269

L403 265

L403 266

L402 266

L402 265

L402 264

L401 265

L399 265

L399 264

L399 264

L395 264

L390 264

L390 264

L390 265

L388 265

L387 264

L388 265

L388 266

L386 266

L385 265

L385 266

L386 266

L383 269

C381 270 379 272 379 273

C379 274 379 275 378 275

C377 276 377 286 379 288

L380 289

L380 290

L379 291

L383 293

C385 295 387 297 387 297

L387 298

L389 297

L390 297

L390 298

L390 299

L394 299

L399 299

L399 298

Z

M365 263

L365 262

L366 262

L368 263

L368 262

L368 261

L369 261

L369 262

L372 259

L375 255

L375 255

L376 256

L376 253

C376 252 376 250 377 250

C377 250 378 248 378 246

L378 243

L377 243

L376 243

L376 241

C376 240 375 238 372 236

C367 230 366 229 364 230

L362 230

L362 229

L363 228

L360 228

L357 228

L358 229

L358 230

L356 230

L353 229

L354 230

L354 231

L353 231

L351 230

L351 231

L352 232

L350 233

C349 233 348 233 348 233

L347 233

L347 234

L348 235

L346 237

C344 238 344 240 344 241

L344 242

L343 242

L343 242

L343 247

L343 251

L343 251

L344 251

L344 252

C343 253 348 259 353 263

C354 263 357 264 360 264

L366 264

L365 263

Z

M136 217

L136 217

L136 217

C136 217 133 219 131 222

L127 227

L131 222

C134 220 136 217 136 217

Z

M411 226

C411 226 410 224 408 222

L405 220

L407 223

C409 225 411 226 411 226

L411 226

L411 226

Z

M91 401

L90 399

L92 400

C93 401 94 402 94 403

L94 403

L94 403

C93 403 92 402 91 401

Z

M260 205

L260 204

L258 204

L256 205

L256 201

L256 198

L257 199

L258 199

L257 195

L257 192

L258 192

L259 193

L258 191

L258 188

L259 188

L260 188

L259 186

L259 184

L260 184

L261 185

L260 183

L260 181

L261 181

L262 182

L261 181

L261 179

L262 179

L263 179

L262 177

L262 176

L263 176

L264 177

L264 176

C263 175 266 169 267 169

L268 169

L267 168

L267 167

L268 166

L270 166

L269 165

L269 164

L276 157

L283 150

L282 151

L282 153

L284 150

L287 147

L286 148

L286 150

L288 147

L290 145

L290 145

L290 146

L291 145

L293 143

L294 144

L295 144

L295 143

L294 142

L297 141

C298 140 300 140 300 141

L301 141

L300 140

L300 139

L301 139

L303 140

L303 139

L303 138

L305 138

L306 139

L306 138

L306 137

L308 137

L309 138

L309 137

L309 136

L311 136

L313 137

L313 136

L313 135

L316 135

L318 136

L318 135

L318 134

L322 134

L326 135

L325 134

L325 133

L348 133

L372 134

L371 133

L371 132

L373 132

L376 133

L376 132

L376 131

L378 131

L379 132

L379 131

L379 130

L381 130

L382 131

L382 130

L382 129

L385 128

C387 127 388 127 388 127

C389 127 390 126 392 124

L394 122

L395 123

L397 123

L396 123

L395 122

L399 118

L404 113

L404 114

L405 114

L405 113

L404 112

L406 110

L409 107

L409 107

C409 107 409 105 409 104

L410 102

L411 102

L412 102

L411 100

L411 99

L412 99

L413 100

L412 98

L412 96

L413 96

L414 97

L413 94

L413 92

L414 92

L415 93

L414 89

L414 85

L415 86

L416 86

L416 81

C415 76 415 76 418 72

L421 69

L422 70

L423 70

L423 69

L423 69

L428 69

L433 69

L433 69

L433 70

L434 70

L435 69

L438 72

C440 75 440 76 441 84

L441 92

L440 91

L439 91

L440 95

L440 98

L439 98

L438 97

L439 99

L439 102

L438 102

L437 102

L438 104

L438 105

L437 105

L436 105

L437 107

L437 108

L436 108

L435 108

L436 110

L436 111

L435 111

L434 110

L435 111

L435 113

L434 113

L433 113

L434 114

L434 115

L433 115

L432 115

L433 116

L433 117

L432 117

L431 117

L431 118

L432 119

L430 121

L428 123

L429 123

L429 124

L428 125

L426 125

L427 126

L427 127

L419 135

L412 143

L413 141

L413 140

L411 143

L408 146

L408 145

L408 144

L407 146

L405 148

L405 147

L405 146

L403 148

L401 150

L400 149

L399 149

L399 150

L399 151

L398 151

L397 150

L397 151

L397 152

L396 152

L395 151

L395 152

L395 153

L394 153

L393 152

L393 153

L393 154

L391 154

L390 153

L391 154

L391 155

L390 155

L388 154

L388 155

L388 156

L387 156

L385 155

L385 156

L385 157

L383 157

L381 156

L381 157

L381 158

L378 158

L376 157

L377 158

L377 159

L373 159

L369 158

L370 159

L370 160

L347 160

L323 160

L323 160

L323 161

L321 161

L318 160

L318 161

L317 162

L315 162

L312 163

L312 163

L312 164

L310 164

L309 163

L310 164

L310 165

L309 165

L308 164

L307 166

C306 166 305 167 304 167

C303 167 300 170 297 173

L292 178

L291 177

L291 177

L291 178

C292 179 288 185 287 185

L286 185

L287 187

L287 188

L286 188

L285 187

L286 188

L286 190

L285 190

L284 190

L285 192

L285 193

L284 193

L283 193

L284 196

L284 198

L283 198

L282 197

L283 201

L283 206

L282 204

L282 203

L280 204

L278 204

L279 205

L279 206

L269 206

L259 206

L260 205

Z

"/>

<path fill="#6f6f6f" stroke="none" d="
M119 413

C121 413 124 413 126 413

L130 414

L123 414

L116 414

L119 413

Z

M406 413

L407 413

L408 413

L408 414

L406 414

L405 414

L406 413

Z

M421 413

C421 413 423 413 423 413

L425 414

L422 414

L420 414

L421 413

Z

M112 412

L113 412

L114 412

L114 413

L112 413

L111 413

L112 412

Z

M401 412

L402 412

L403 412

L403 413

L401 413

L400 413

L401 412

Z

M426 412

L427 412

L428 412

L428 413

L426 413

L425 413

L426 412

Z

M439 407

C439 406 440 406 441 405

L443 404

L441 405

C440 406 440 407 439 407

L439 407

L439 407

Z

M91 401

L90 399

L92 400

C93 401 94 402 94 403

L94 403

L94 403

C93 403 92 402 91 401

Z

M446 401

C447 399 449 398 449 398

L449 398

L447 401

C446 402 444 403 444 403

L444 403

L446 401

Z

M166 397

C166 396 167 396 168 395

L170 394

L168 395

C167 396 167 397 166 397

L166 397

L166 397

Z

M367 394

L366 393

L367 394

C368 395 369 395 369 396

L369 396

L369 396

C368 396 368 395 367 394

Z

M171 393

C171 392 172 392 173 391

L175 390

L173 391

C172 392 172 393 171 393

L171 393

L171 393

Z

M360 388

L357 385

L360 388

C362 390 364 392 364 392

L364 392

L364 392

C364 392 362 390 360 388

Z

M176 389

C176 389 177 387 179 385

L183 383

L180 386

C178 388 176 389 176 389

L176 389

L176 389

Z

M81 379

L81 378

L82 379

L82 380

L82 381

L81 381

L81 379

Z

M348 376

L345 373

L348 376

C350 378 352 380 352 380

L352 380

L352 380

C352 380 350 378 348 376

Z

M80 374

L80 372

L81 373

C81 373 81 375 81 375

L80 377

L80 374

Z

M457 374

L457 373

L458 374

L458 375

L458 376

L457 376

L457 374

Z

M199 366

C202 362 206 359 206 359

L206 359

L200 366

C196 370 192 373 192 373

L192 373

L199 366

Z

M342 369

L341 368

L342 369

C343 370 344 370 344 371

L344 371

L344 371

C343 371 343 370 342 369

Z

M79 358

L79 347

L80 352

C80 355 80 360 80 363

L79 369

L79 358

Z

M458 357

L458 346

L459 351

C459 354 459 360 459 363

L458 369

L458 357

Z

M207 359

C207 358 208 358 209 357

L211 356

L209 357

C208 358 208 359 207 359

L207 359

L207 359

Z

M228 348

L229 348

L230 348

L230 349

L228 349

L227 349

L228 348

Z

M234 347

C235 347 237 347 238 347

L240 348

L236 348

L233 348

L234 347

Z

M301 347

C302 347 304 347 305 347

L307 348

L303 348

L299 348

L301 347

Z

M80 339

L80 336

L81 337

C81 338 81 340 81 340

L80 342

L80 339

Z

M457 339

L457 336

L458 337

C458 338 458 340 458 340

L457 342

L457 339

Z

M81 331

L81 329

L82 330

C82 330 82 332 82 332

L81 334

L81 331

Z

M456 331

L456 329

L457 330

C457 330 457 332 457 332

L456 334

L456 331

Z

M349 329

L345 326

L348 328

C350 329 352 331 352 331

L353 332

L353 332

C352 332 350 331 349 329

Z

M366 332

L366 331

L368 331

L369 330

L368 331

C368 332 367 332 367 332

L366 332

L366 332

Z

M166 328

L165 326

L167 327

C168 328 169 329 169 330

L169 330

L169 330

C168 330 167 329 166 328

Z

M372 328

C372 327 374 326 374 326

L374 326

L373 328

C372 329 370 330 370 330

L370 330

L372 328

Z

M82 325

L82 323

L83 324

C83 324 83 326 83 326

L82 328

L82 325

Z

M188 325

L188 323

L189 323

L189 324

L188 325

L187 327

L188 325

Z

M455 324

L455 323

L456 324

L456 325

L456 326

L455 326

L455 324

Z

M189 310

L190 298

L202 297

L214 297

L202 298

L190 298

L190 310

L189 322

L189 310

Z

M83 319

L83 318

L84 319

L84 320

L84 321

L83 321

L83 319

Z

M454 319

L454 318

L455 319

L455 320

L455 321

L454 321

L454 319

Z

M342 316

L342 313

L343 314

C343 315 343 317 343 317

L342 319

L342 316

Z

M452 310

L452 309

L453 310

L453 311

L453 312

L452 312

L452 310

Z

M451 306

L451 305

L452 306

L452 307

L452 308

L451 308

L451 306

Z

M346 305

C346 304 347 304 348 303

L350 302

L348 303

C347 304 347 305 346 305

L346 305

L346 305

Z

M324 298

C324 298 326 298 326 298

L328 299

L325 299

L323 299

L324 298

Z

M358 298

C359 298 361 298 362 298

L364 299

L360 299

L356 299

L358 298

Z

M393 298

C394 298 396 298 396 298

L398 299

L395 299

L392 299

L393 298

Z

M145 297

C148 297 154 297 157 297

L164 298

L151 298

L139 298

L145 297

Z

M215 297

L215 296

L217 296

L218 295

L217 296

C217 297 216 297 216 297

L215 297

L215 297

Z

M332 297

L332 296

L334 296

L335 295

L334 296

C334 297 333 297 333 297

L332 297

L332 297

Z

M132 294

L131 292

L133 293

C134 294 135 295 135 296

L135 296

L135 296

C134 296 133 295 132 294

Z

M312 293

L310 290

L313 292

C315 294 316 296 316 296

L316 296

L316 296

C316 296 314 295 312 293

Z

M406 294

C407 292 409 291 409 291

L409 291

L407 294

C406 295 404 296 404 296

L404 296

L406 294

Z

M336 295

C336 294 337 294 338 293

L340 292

L338 293

C337 294 337 295 336 295

L336 295

L336 295

Z

M381 293

L380 291

L382 292

C383 293 384 294 384 295

L384 295

L384 295

C383 295 382 294 381 293

Z

M129 290

L129 289

L129 288

L130 288

L130 289

L131 291

L131 291

C130 291 130 291 129 290

Z

M223 287

L223 286

L224 287

L224 288

L224 289

L223 289

L223 287

Z

M128 284

L128 283

L129 284

L129 285

L129 286

L128 286

L128 284

Z

M411 284

L411 283

L412 284

L412 285

L412 286

L411 286

L411 284

Z

M377 281

L377 277

L378 279

C378 280 378 282 378 283

L377 286

L377 281

Z

M342 281

L342 278

L343 279

C343 280 343 282 343 283

L342 285

L342 281

Z

M411 277

L411 276

L412 277

L412 278

L412 279

L411 279

L411 277

Z

M219 275

L218 273

L220 274

C221 275 222 276 222 277

L222 277

L222 277

C221 277 220 276 219 275

Z

M213 271

L214 271

L215 271

L215 272

L213 272

L212 272

L213 271

Z

M189 259

L189 247

L190 253

C190 256 190 262 190 265

L189 272

L189 259

Z

M313 269

C314 267 316 266 316 266

L316 266

L314 269

C313 270 311 271 311 271

L311 271

L313 269

Z

M406 269

L405 267

L407 268

C408 269 409 270 409 271

L409 271

L409 271

C408 271 407 270 406 269

Z

M381 270

C381 269 382 269 383 268

L385 267

L383 268

C382 269 382 270 381 270

L381 270

L381 270

Z

M386 266

L387 265

L388 265

L388 266

L386 266

L385 267

L386 266

Z

M325 263

L326 263

L327 263

L327 264

L325 264

L324 264

L325 263

Z

M358 263

C359 263 361 263 362 263

L365 264

L360 264

L356 264

L358 263

Z

M394 263

L395 263

L396 263

L396 264

L394 264

L393 264

L394 263

Z

M347 259

L346 257

L348 258

C349 259 350 260 350 261

L350 261

L350 261

C349 261 348 260 347 259

Z

M371 260

C371 259 372 259 373 258

L375 257

L373 258

C372 259 372 260 371 260

L371 260

L371 260

Z

M106 255

C107 254 107 253 108 253

L108 253

L107 255

C106 256 106 257 105 257

L105 257

L106 255

Z

M430 253

L429 251

L429 251

C430 251 430 252 431 253

L432 255

L432 255

C431 255 431 254 430 253

Z

M342 247

L342 244

L343 245

C343 246 343 248 343 248

L342 250

L342 247

Z

M185 241

L184 239

L186 240

C187 241 188 242 188 243

L188 243

L188 243

C187 243 186 242 185 241

Z

M347 235

C348 233 350 232 350 232

L350 232

L348 235

C347 236 345 237 345 237

L345 237

L347 235

Z

M371 234

L370 232

L372 233

C373 234 374 235 374 236

L374 236

L374 236

C373 236 372 235 371 234

Z

M121 232

C121 231 122 231 123 230

L125 229

L123 230

C122 231 122 232 121 232

L121 232

L121 232

Z

M352 231

L353 230

L354 230

L354 231

L352 231

L351 232

L352 231

Z

M415 230

L414 229

L415 230

C416 231 417 231 417 232

L417 232

L417 232

C416 232 416 231 415 230

Z

M356 229

L357 229

L358 229

L358 230

L356 230

L355 230

L356 229

Z

M363 229

L364 229

L365 229

L365 230

L363 230

L362 230

L363 229

Z

M407 221

L402 216

L407 221

C410 224 413 227 413 227

L413 227

L413 227

C413 227 410 224 407 221

Z

M131 221

C133 218 136 216 136 216

L136 216

L132 221

C129 224 126 226 126 226

L126 226

L131 221

Z

M256 224

C257 224 259 224 260 224

L262 225

L258 225

L255 225

L256 224

Z

M278 224

C279 224 281 224 282 224

L284 225

L280 225

L277 225

L278 224

Z

M250 223

L251 223

L252 223

L252 224

L250 224

L249 224

L250 223

Z

M287 223

L288 223

L289 223

L289 224

L287 224

L286 224

L287 223

Z

M138 215

C138 214 139 214 140 213

L142 212

L140 213

C139 214 139 215 138 215

L138 215

L138 215

Z

M314 214

C315 213 317 212 318 212

L319 212

L316 214

C315 214 313 215 313 215

L312 215

L314 214

Z

M220 213

L218 211

L219 211

C219 211 221 212 222 213

L225 214

L224 214

C223 214 221 213 220 213

Z

M389 207

L388 206

L390 207

C391 208 392 208 392 209

L392 209

L392 209

C392 209 391 208 389 207

Z

M261 205

C263 205 265 205 266 205

L269 206

L264 206

L259 206

L261 205

Z

M272 205

C274 205 276 205 277 205

L280 206

L275 206

L270 206

L272 205

Z

M282 203

L282 200

L283 201

C283 202 283 204 283 204

L282 206

L282 203

Z

M256 201

L256 198

L257 199

C257 200 257 202 257 203

L256 205

L256 201

Z

M161 201

L162 201

L163 201

L163 202

L161 202

L160 202

L161 201

Z

M376 201

L377 201

L378 201

L378 202

L376 202

L375 202

L376 201

Z

M165 200

L166 200

L167 200

L167 201

L165 201

L164 201

L165 200

Z

M188 200

L189 200

L190 200

L190 201

L188 201

L187 201

L188 200

Z

M349 200

L350 200

L351 200

L351 201

L349 201

L348 201

L349 200

Z

M372 200

L373 200

L374 200

L374 201

L372 201

L371 201

L372 200

Z

M171 199

C172 199 174 199 174 199

L176 200

L173 200

L170 200

L171 199

Z

M178 199

C180 199 182 199 183 199

L186 200

L181 200

L176 200

L178 199

Z

M355 199

C356 199 358 199 359 199

L362 200

L357 200

L353 200

L355 199

Z

M364 199

C365 199 367 199 367 199

L369 200

L366 200

L363 200

L364 199

Z

M283 196

L283 195

L284 196

L284 197

L284 198

L283 198

L283 196

Z

M257 193

L257 192

L258 193

L258 194

L258 195

L257 195

L257 193

Z

M290 180

C290 179 291 179 292 178

L294 177

L292 178

C291 179 291 180 290 180

L290 180

L290 180

Z

M299 171

C299 170 300 170 301 169

L303 168

L301 169

C300 170 300 171 299 171

L299 171

L299 171

Z

M273 160

C273 159 275 158 275 158

L275 158

L274 160

C273 161 271 162 271 162

L271 162

L273 160

Z

M321 160

L322 160

L323 160

L323 161

L321 161

L320 161

L321 160

Z

M337 159

C343 159 353 159 359 159

L371 160

L348 160

L326 160

L337 159

Z

M374 158

C374 158 376 158 376 158

L378 159

L375 159

L373 159

L374 158

Z

M281 152

C281 151 283 150 283 150

L283 150

L282 152

C281 153 279 154 279 154

L279 154

L281 152

Z

M414 140

C414 139 416 138 416 138

L416 138

L415 140

C414 141 412 142 412 142

L412 142

L414 140

Z

M299 140

C300 139 301 139 302 139

L303 139

L301 140

C300 141 299 141 299 141

L298 141

L299 140

Z

M319 134

L320 134

L321 134

L321 135

L319 135

L318 135

L319 134

Z

M336 133

C342 133 352 133 358 133

L370 134

L347 134

L325 134

L336 133

Z

M372 132

L373 132

L374 132

L374 133

L372 133

L371 133

L372 132

Z

M423 131

C423 130 425 129 425 129

L425 129

L424 131

C423 132 421 133 421 133

L421 133

L423 131

Z

M393 124

C393 123 394 123 395 122

L397 121

L395 122

C394 123 394 124 393 124

L393 124

L393 124

Z

M403 114

C403 113 404 113 405 112

L407 111

L405 112

C404 113 404 114 403 114

L403 114

L403 114

Z

M439 96

L439 95

L440 96

L440 97

L440 98

L439 98

L439 96

Z

M413 93

L413 92

L414 93

L414 94

L414 95

L413 95

L413 93

Z

M440 89

L440 86

L441 87

C441 88 441 90 441 91

L440 93

L440 89

Z

M414 88

L414 85

L415 86

C415 87 415 89 415 89

L414 91

L414 88

Z

"/>

<path fill="#afafaf" stroke="none" d="
M117 413

L118 413

L119 413

L119 414

L117 414

L116 414

L117 413

Z

M91 401

L90 399

L92 400

C93 401 94 402 94 403

L94 403

L94 403

C93 403 92 402 91 401

Z

M446 401

C447 399 449 398 449 398

L449 398

L447 401

C446 402 444 403 444 403

L444 403

L446 401

Z

M362 390

L361 389

L362 390

C363 391 364 391 364 392

L364 392

L364 392

C363 392 363 391 362 390

Z

M346 374

L345 373

L346 374

C347 375 348 375 348 376

L348 376

L348 376

C347 376 347 375 346 374

Z

M199 366

C201 364 203 362 203 362

L203 362

L200 366

C198 367 196 369 196 369

L196 369

L199 366

Z

M79 365

L79 362

L80 363

C80 364 80 366 80 367

L79 369

L79 365

Z

M458 366

L458 364

L459 365

C459 365 459 367 459 367

L458 369

L458 366

Z

M79 350

L79 347

L80 348

C80 349 80 351 80 352

L79 354

L79 350

Z

M458 349

L458 346

L459 347

C459 348 459 350 459 350

L458 352

L458 349

Z

M236 347

C236 347 238 347 238 347

L240 348

L237 348

L235 348

L236 347

Z

M300 347

C300 347 302 347 302 347

L304 348

L301 348

L299 348

L300 347

Z

M80 337

L80 336

L81 337

L81 338

L81 339

L80 339

L80 337

Z

M457 337

L457 336

L458 337

L458 338

L458 339

L457 339

L457 337

Z

M347 328

L346 326

L348 327

C349 328 350 329 350 330

L350 330

L350 330

C349 330 348 329 347 328

Z

M189 309

L190 298

L201 297

L212 297

L201 298

L190 298

L190 309

L189 320

L189 309

Z

M359 298

C359 298 361 298 361 298

L363 299

L360 299

L358 299

L359 298

Z

M146 297

C149 297 155 297 158 297

L164 298

L152 298

L140 298

L146 297

Z

M312 293

L311 291

L313 292

C314 293 315 294 315 295

L315 295

L315 295

C314 295 313 294 312 293

Z

M377 281

L377 278

L378 279

C378 280 378 282 378 283

L377 285

L377 281

Z

M342 281

L342 280

L343 281

L343 282

L343 283

L342 283

L342 281

Z

M189 260

L189 249

L190 254

C190 257 190 263 190 266

L189 272

L189 260

Z

M312 270

C312 269 313 269 314 268

L316 267

L314 268

C313 269 313 270 312 270

L312 270

L312 270

Z

M358 263

C359 263 361 263 362 263

L364 264

L360 264

L357 264

L358 263

Z

M346 236

C346 235 347 235 348 234

L350 233

L348 234

C347 235 347 236 346 236

L346 236

L346 236

Z

M411 225

L410 224

L411 225

C412 226 413 226 413 227

L413 227

L413 227

C412 227 412 226 411 225

Z

M131 221

C133 218 136 216 136 216

L136 216

L132 221

C129 224 126 226 126 226

L126 226

L131 221

Z

M259 224

L260 224

L261 224

L261 225

L259 225

L258 225

L259 224

Z

M278 224

C278 224 280 224 280 224

L282 225

L279 225

L277 225

L278 224

Z

M260 205

L261 205

L262 205

L262 206

L260 206

L259 206

L260 205

Z

M277 205

L278 205

L279 205

L279 206

L277 206

L276 206

L277 205

Z

M282 203

L282 202

L283 203

L283 204

L283 205

L282 205

L282 203

Z

M256 199

L256 198

L257 199

L257 200

L257 201

L256 201

L256 199

Z

M366 159

C367 159 369 159 369 159

L371 160

L368 160

L365 160

L366 159

Z

M335 133

C341 133 351 133 356 133

L367 134

L346 134

L325 134

L335 133

Z

M440 90

L440 89

L441 90

L441 91

L441 92

L440 92

L440 90

Z

M414 86

L414 85

L415 86

L415 87

L415 88

L414 88

L414 86

Z

"/>

<path fill="#f6f6f6" stroke="none" d="
"/>

</svg>

